<?xml version="1.0" encoding="utf-8"?>
<!-- Generator: Adobe Illustrator 24.1.0, SVG Export Plug-In . SVG Version: 6.00 Build 0)  -->
<svg version="1.1" id="Capa_1" xmlns="http://www.w3.org/2000/svg" xmlns:xlink="http://www.w3.org/1999/xlink" x="0px" y="0px"
	 viewBox="0 0 100 100" style="enable-background:new 0 0 100 100;" xml:space="preserve">
<style type="text/css">
	.st0{fill:#F4405A;}
	.st1{fill:#FFFFFF;}
</style>
<g>
	<g>
		<path class="st0" d="M50,96.5L50,96.5C24.3,96.5,3.5,75.7,3.5,50v0C3.5,24.3,24.3,3.5,50,3.5h0c25.7,0,46.5,20.8,46.5,46.5v0
			C96.5,75.7,75.7,96.5,50,96.5z"/>
	</g>
	<g>
		<path class="st1" d="M50,52.5C50,52.5,50,52.5,50,52.5c-3.2,0-6.3-1.3-8.5-3.5c-2.3-2.3-3.5-5.3-3.5-8.5c0-3.2,1.3-6.2,3.5-8.5
			c2.3-2.3,5.3-3.5,8.5-3.5c0,0,0,0,0,0c1.2,0,2.2,1,2.2,2.2c0,1.2-1,2.2-2.2,2.2c0,0,0,0,0,0c-4.2,0-7.6,3.4-7.6,7.6
			c0,2,0.8,3.9,2.2,5.4c1.4,1.4,3.3,2.2,5.4,2.2c0,0,0,0,0,0c2,0,3.9-0.8,5.4-2.2c1.4-1.4,2.2-3.3,2.2-5.4c0-1.7-0.5-3.2-1.5-4.5
			c-0.7-1-0.5-2.4,0.5-3.1c1-0.7,2.4-0.5,3.1,0.5c1.6,2.1,2.4,4.6,2.4,7.2c0,3.2-1.3,6.2-3.5,8.5C56.2,51.3,53.2,52.5,50,52.5z"/>
		<circle class="st1" cx="55.9" cy="28.7" r="2.5"/>
		<path class="st1" d="M53,73.8h-2.8c-1.2,0-2.2-1-2.2-2.2s1-2.2,2.2-2.2H53c2.6,0,4.6-2.1,4.6-4.6s-2.1-4.6-4.6-4.6H42.8
			c-1.2,0-2.2-1-2.2-2.2c0-1.2,1-2.2,2.2-2.2H53c5,0,9.1,4.1,9.1,9.1S58,73.8,53,73.8z"/>
	</g>
</g>
</svg>
